<?xml version="1.0" standalone="no"?><!DOCTYPE svg PUBLIC "-//W3C//DTD SVG 1.1//EN" "http://www.w3.org/Graphics/SVG/1.1/DTD/svg11.dtd"><svg height="1024" node-id="1" sillyvg="true" template-height="1024" template-width="1024" version="1.1" viewBox="0 0 1024 1024" width="1024" xmlns="http://www.w3.org/2000/svg" xmlns:xlink="http://www.w3.org/1999/xlink"><defs node-id="77"></defs><g node-id="244"><path d="M 143.41 169.15 L 301.91 169.15 L 301.91 221.96 L 354.72 221.96 L 354.72 274.78 L 407.54 274.78 L 407.54 221.96 L 618.33 221.96 L 618.33 274.78 L 671.14 274.78 L 671.14 221.96 L 723.96 221.96 L 723.96 169.15 L 882.46 169.15 L 882.46 380.41 L 829.64 380.41 L 829.64 433.22 L 882.46 433.22 L 882.46 697.59 L 829.64 697.59 L 829.64 750.40 L 776.83 750.40 L 776.83 803.22 L 671.20 803.22 L 671.20 856.03 L 354.31 856.03 L 354.31 803.22 L 248.68 803.22 L 248.68 750.40 L 195.86 750.40 L 195.86 697.59 L 143.05 697.59 L 143.05 433.22 L 196.22 433.22 L 196.22 380.41 L 143.41 380.41 Z" fill="#ce9f41" fill-opacity="0.78" fill-rule="nonzero" group-id="1" node-id="81" stroke="none" target-height="686.88" target-width="739.41003" target-x="143.05" target-y="169.15"></path></g><path d="M 143.41 116.33 L 196.22 116.33 L 196.22 169.14 L 143.41 169.14 Z" fill="#472712" fill-rule="nonzero" node-id="84" stroke="none" target-height="52.809998" target-width="52.809998" target-x="143.41" target-y="116.33"></path><path d="M 196.28 221.96 L 249.09 221.96 L 249.09 274.77 L 196.28 274.77 Z" fill="#fff2c7" fill-rule="nonzero" node-id="86" stroke="none" target-height="52.809982" target-width="52.809998" target-x="196.28" target-y="221.96"></path><path d="M 196.07 274.78 L 248.88 274.78 L 248.88 327.59 L 196.07 327.59 Z" fill="#fff2c7" fill-rule="nonzero" node-id="88" stroke="none" target-height="52.809998" target-width="52.809998" target-x="196.07" target-y="274.78"></path><path d="M 248.88 221.96 L 301.69 221.96 L 301.69 274.77 L 248.88 274.77 Z" fill="#fff2c7" fill-rule="nonzero" node-id="90" stroke="none" target-height="52.809982" target-width="52.809998" target-x="248.88" target-y="221.96"></path><path d="M 829.38 274.78 L 776.57 274.78 L 776.57 221.97 L 829.38 221.97 Z" fill="#fff2c7" fill-rule="nonzero" group-id="2" node-id="94" stroke="none" target-height="52.809998" target-width="52.809998" target-x="776.57" target-y="221.97"></path><path d="M 829.59 327.59 L 776.78 327.59 L 776.78 274.78 L 829.59 274.78 Z" fill="#fff2c7" fill-rule="nonzero" group-id="3" node-id="99" stroke="none" target-height="52.809998" target-width="52.809998" target-x="776.78" target-y="274.78"></path><path d="M 776.77 274.78 L 723.96 274.78 L 723.96 221.97 L 776.77 221.97 Z" fill="#fff2c7" fill-rule="nonzero" group-id="4" node-id="104" stroke="none" target-height="52.809998" target-width="52.809998" target-x="723.96" target-y="221.97"></path><path d="M 196.28 116.33 L 249.09 116.33 L 249.09 169.14 L 196.28 169.14 Z" fill="#472712" fill-rule="nonzero" node-id="107" stroke="none" target-height="52.809998" target-width="52.809998" target-x="196.28" target-y="116.33"></path><path d="M 249.09 116.33 L 301.90 116.33 L 301.90 169.14 L 249.09 169.14 Z" fill="#472712" fill-rule="nonzero" node-id="109" stroke="none" target-height="52.809998" target-width="52.809998" target-x="249.09" target-y="116.33"></path><path d="M 723.96 116.33 L 776.77 116.33 L 776.77 169.14 L 723.96 169.14 Z" fill="#472712" fill-rule="nonzero" node-id="111" stroke="none" target-height="52.809998" target-width="52.809998" target-x="723.96" target-y="116.33"></path><path d="M 776.83 116.33 L 829.64 116.33 L 829.64 169.14 L 776.83 169.14 Z" fill="#472712" fill-rule="nonzero" node-id="113" stroke="none" target-height="52.809998" target-width="52.809998" target-x="776.83" target-y="116.33"></path><path d="M 829.64 116.33 L 882.45 116.33 L 882.45 169.14 L 829.64 169.14 Z" fill="#472712" fill-rule="nonzero" node-id="115" stroke="none" target-height="52.809998" target-width="52.809998" target-x="829.64" target-y="116.33"></path><path d="M 882.46 169.15 L 935.27 169.15 L 935.27 221.96 L 882.46 221.96 Z" fill="#472712" fill-rule="nonzero" node-id="117" stroke="none" target-height="52.810013" target-width="52.809998" target-x="882.46" target-y="169.15"></path><path d="M 882.46 221.96 L 935.27 221.96 L 935.27 274.77 L 882.46 274.77 Z" fill="#472712" fill-rule="nonzero" node-id="119" stroke="none" target-height="52.809982" target-width="52.809998" target-x="882.46" target-y="221.96"></path><path d="M 882.46 274.78 L 935.27 274.78 L 935.27 327.59 L 882.46 327.59 Z" fill="#472712" fill-rule="nonzero" node-id="121" stroke="none" target-height="52.809998" target-width="52.809998" target-x="882.46" target-y="274.78"></path><path d="M 882.46 327.59 L 935.27 327.59 L 935.27 380.40 L 882.46 380.40 Z" fill="#472712" fill-rule="nonzero" node-id="123" stroke="none" target-height="52.809998" target-width="52.809998" target-x="882.46" target-y="327.59"></path><path d="M 90.59 169.15 L 143.40 169.15 L 143.40 221.96 L 90.59 221.96 Z" fill="#472712" fill-rule="nonzero" node-id="125" stroke="none" target-height="52.810013" target-width="52.809998" target-x="90.59" target-y="169.15"></path><path d="M 90.59 221.96 L 143.40 221.96 L 143.40 274.77 L 90.59 274.77 Z" fill="#472712" fill-rule="nonzero" node-id="127" stroke="none" target-height="52.809982" target-width="52.809998" target-x="90.59" target-y="221.96"></path><path d="M 90.59 274.78 L 143.40 274.78 L 143.40 327.59 L 90.59 327.59 Z" fill="#472712" fill-rule="nonzero" node-id="129" stroke="none" target-height="52.809998" target-width="52.809998" target-x="90.59" target-y="274.78"></path><path d="M 90.59 327.59 L 143.40 327.59 L 143.40 380.40 L 90.59 380.40 Z" fill="#472712" fill-rule="nonzero" node-id="131" stroke="none" target-height="52.809998" target-width="52.809998" target-x="90.59" target-y="327.59"></path><path d="M 829.64 380.41 L 882.45 380.41 L 882.45 433.22 L 829.64 433.22 Z" fill="#472712" fill-rule="nonzero" node-id="133" stroke="none" target-height="52.809998" target-width="52.809998" target-x="829.64" target-y="380.41"></path><path d="M 143.41 380.41 L 196.22 380.41 L 196.22 433.22 L 143.41 433.22 Z" fill="#472712" fill-rule="nonzero" node-id="135" stroke="none" target-height="52.809998" target-width="52.809998" target-x="143.41" target-y="380.41"></path><path d="M 882.46 433.22 L 935.27 433.22 L 935.27 486.03 L 882.46 486.03 Z" fill="#472712" fill-rule="nonzero" node-id="137" stroke="none" target-height="52.809998" target-width="52.809998" target-x="882.46" target-y="433.22"></path><path d="M 882.46 486.04 L 935.27 486.04 L 935.27 538.85 L 882.46 538.85 Z" fill="#472712" fill-rule="nonzero" node-id="139" stroke="none" target-height="52.809967" target-width="52.809998" target-x="882.46" target-y="486.04"></path><path d="M 882.46 538.85 L 935.27 538.85 L 935.27 591.66 L 882.46 591.66 Z" fill="#472712" fill-rule="nonzero" node-id="141" stroke="none" target-height="52.809998" target-width="52.809998" target-x="882.46" target-y="538.85"></path><path d="M 882.46 591.96 L 935.27 591.96 L 935.27 644.77 L 882.46 644.77 Z" fill="#472712" fill-rule="nonzero" node-id="143" stroke="none" target-height="52.809998" target-width="52.809998" target-x="882.46" target-y="591.96"></path><path d="M 882.46 644.77 L 935.27 644.77 L 935.27 697.58 L 882.46 697.58 Z" fill="#472712" fill-rule="nonzero" node-id="145" stroke="none" target-height="52.809998" target-width="52.809998" target-x="882.46" target-y="644.77"></path><path d="M 90.59 433.22 L 143.40 433.22 L 143.40 486.03 L 90.59 486.03 Z" fill="#472712" fill-rule="nonzero" node-id="147" stroke="none" target-height="52.809998" target-width="52.809998" target-x="90.59" target-y="433.22"></path><path d="M 90.59 486.04 L 143.40 486.04 L 143.40 538.85 L 90.59 538.85 Z" fill="#472712" fill-rule="nonzero" node-id="149" stroke="none" target-height="52.809967" target-width="52.809998" target-x="90.59" target-y="486.04"></path><path d="M 90.23 538.85 L 143.04 538.85 L 143.04 591.66 L 90.23 591.66 Z" fill="#472712" fill-rule="nonzero" node-id="151" stroke="none" target-height="52.809998" target-width="52.80999" target-x="90.23" target-y="538.85"></path><path d="M 90.23 591.96 L 143.04 591.96 L 143.04 644.77 L 90.23 644.77 Z" fill="#472712" fill-rule="nonzero" node-id="153" stroke="none" target-height="52.809998" target-width="52.80999" target-x="90.23" target-y="591.96"></path><path d="M 90.23 644.77 L 143.04 644.77 L 143.04 697.58 L 90.23 697.58 Z" fill="#472712" fill-rule="nonzero" node-id="155" stroke="none" target-height="52.809998" target-width="52.80999" target-x="90.23" target-y="644.77"></path><path d="M 829.64 697.59 L 882.45 697.59 L 882.45 750.40 L 829.64 750.40 Z" fill="#472712" fill-rule="nonzero" node-id="157" stroke="none" target-height="52.809998" target-width="52.809998" target-x="829.64" target-y="697.59"></path><path d="M 829.64 750.40 L 882.45 750.40 L 882.45 803.21 L 829.64 803.21 Z" fill="#472712" fill-rule="nonzero" node-id="159" stroke="none" target-height="52.809998" target-width="52.809998" target-x="829.64" target-y="750.4"></path><path d="M 776.83 750.40 L 829.64 750.40 L 829.64 803.21 L 776.83 803.21 Z" fill="#472712" fill-rule="nonzero" node-id="161" stroke="none" target-height="52.809998" target-width="52.809998" target-x="776.83" target-y="750.4"></path><path d="M 195.86 750.40 L 143.05 750.40 L 143.05 697.59 L 195.86 697.59 Z" fill="#472712" fill-rule="nonzero" group-id="5" node-id="165" stroke="none" target-height="52.809998" target-width="52.809998" target-x="143.05" target-y="697.59"></path><path d="M 195.86 803.22 L 143.05 803.22 L 143.05 750.41 L 195.86 750.41 Z" fill="#472712" fill-rule="nonzero" group-id="6" node-id="170" stroke="none" target-height="52.809998" target-width="52.809998" target-x="143.05" target-y="750.41"></path><path d="M 248.68 803.22 L 195.87 803.22 L 195.87 750.41 L 248.68 750.41 Z" fill="#472712" fill-rule="nonzero" group-id="7" node-id="175" stroke="none" target-height="52.809998" target-width="52.809998" target-x="195.87" target-y="750.41"></path><path d="M 724.01 803.22 L 776.82 803.22 L 776.82 856.03 L 724.01 856.03 Z" fill="#472712" fill-rule="nonzero" node-id="178" stroke="none" target-height="52.81006" target-width="52.809998" target-x="724.01" target-y="803.22"></path><path d="M 671.20 803.22 L 724.01 803.22 L 724.01 856.03 L 671.20 856.03 Z" fill="#472712" fill-rule="nonzero" node-id="180" stroke="none" target-height="52.81006" target-width="52.809998" target-x="671.2" target-y="803.22"></path><path d="M 301.49 803.22 L 354.30 803.22 L 354.30 856.03 L 301.49 856.03 Z" fill="#472712" fill-rule="nonzero" node-id="182" stroke="none" target-height="52.81006" target-width="52.809998" target-x="301.49" target-y="803.22"></path><path d="M 248.68 803.22 L 301.49 803.22 L 301.49 856.03 L 248.68 856.03 Z" fill="#472712" fill-rule="nonzero" node-id="184" stroke="none" target-height="52.81006" target-width="52.809998" target-x="248.68" target-y="803.22"></path><path d="M 618.38 856.03 L 671.19 856.03 L 671.19 908.84 L 618.38 908.84 Z" fill="#472712" fill-rule="nonzero" node-id="186" stroke="none" target-height="52.809998" target-width="52.809998" target-x="618.38" target-y="856.03"></path><path d="M 565.57 856.03 L 618.38 856.03 L 618.38 908.84 L 565.57 908.84 Z" fill="#472712" fill-rule="nonzero" node-id="188" stroke="none" target-height="52.809998" target-width="52.809998" target-x="565.57" target-y="856.03"></path><path d="M 512.75 856.03 L 565.56 856.03 L 565.56 908.84 L 512.75 908.84 Z" fill="#472712" fill-rule="nonzero" node-id="190" stroke="none" target-height="52.809998" target-width="52.809998" target-x="512.75" target-y="856.03"></path><path d="M 459.94 856.03 L 512.75 856.03 L 512.75 908.84 L 459.94 908.84 Z" fill="#472712" fill-rule="nonzero" node-id="192" stroke="none" target-height="52.809998" target-width="52.809998" target-x="459.94" target-y="856.03"></path><path d="M 407.12 856.03 L 459.93 856.03 L 459.93 908.84 L 407.12 908.84 Z" fill="#472712" fill-rule="nonzero" node-id="194" stroke="none" target-height="52.809998" target-width="52.809998" target-x="407.12" target-y="856.03"></path><path d="M 354.31 856.03 L 407.12 856.03 L 407.12 908.84 L 354.31 908.84 Z" fill="#472712" fill-rule="nonzero" node-id="196" stroke="none" target-height="52.809998" target-width="52.809998" target-x="354.31" target-y="856.03"></path><path d="M 301.91 169.15 L 354.72 169.15 L 354.72 221.96 L 301.91 221.96 Z" fill="#472712" fill-rule="nonzero" node-id="198" stroke="none" target-height="52.810013" target-width="52.809998" target-x="301.91" target-y="169.15"></path><path d="M 354.72 221.96 L 407.53 221.96 L 407.53 274.77 L 354.72 274.77 Z" fill="#472712" fill-rule="nonzero" node-id="200" stroke="none" target-height="52.809982" target-width="52.809998" target-x="354.72" target-y="221.96"></path><path d="M 298.66 427.96 L 351.47 427.96 L 351.47 480.77 L 298.66 480.77 Z" fill="#472712" fill-rule="nonzero" node-id="202" stroke="none" target-height="52.809998" target-width="52.809998" target-x="298.66" target-y="427.96"></path><path d="M 351.48 427.96 L 404.29 427.96 L 404.29 480.77 L 351.48 480.77 Z" fill="#ffffff" fill-rule="nonzero" node-id="204" stroke="none" target-height="52.809998" target-width="52.809998" target-x="351.48" target-y="427.96"></path><path d="M 298.66 480.82 L 351.47 480.82 L 351.47 533.63 L 298.66 533.63 Z" fill="#472712" fill-rule="nonzero" node-id="206" stroke="none" target-height="52.809998" target-width="52.809998" target-x="298.66" target-y="480.82"></path><path d="M 351.48 480.82 L 404.29 480.82 L 404.29 533.63 L 351.48 533.63 Z" fill="#472712" fill-rule="nonzero" node-id="208" stroke="none" target-height="52.809998" target-width="52.809998" target-x="351.48" target-y="480.82"></path><path d="M 610.58 427.96 L 663.39 427.96 L 663.39 480.77 L 610.58 480.77 Z" fill="#472712" fill-rule="nonzero" node-id="210" stroke="none" target-height="52.809998" target-width="52.809998" target-x="610.58" target-y="427.96"></path><path d="M 663.40 427.96 L 716.21 427.96 L 716.21 480.77 L 663.40 480.77 Z" fill="#ffffff" fill-rule="nonzero" node-id="212" stroke="none" target-height="52.809998" target-width="52.809998" target-x="663.4" target-y="427.96"></path><path d="M 610.58 480.82 L 663.39 480.82 L 663.39 533.63 L 610.58 533.63 Z" fill="#472712" fill-rule="nonzero" node-id="214" stroke="none" target-height="52.809998" target-width="52.809998" target-x="610.58" target-y="480.82"></path><path d="M 663.40 480.82 L 716.21 480.82 L 716.21 533.63 L 663.40 533.63 Z" fill="#472712" fill-rule="nonzero" node-id="216" stroke="none" target-height="52.809998" target-width="52.809998" target-x="663.4" target-y="480.82"></path><path d="M 407.54 169.15 L 460.35 169.15 L 460.35 221.96 L 407.54 221.96 Z" fill="#472712" fill-rule="nonzero" node-id="218" stroke="none" target-height="52.810013" target-width="52.809998" target-x="407.54" target-y="169.15"></path><path d="M 460.35 169.15 L 513.16 169.15 L 513.16 221.96 L 460.35 221.96 Z" fill="#472712" fill-rule="nonzero" node-id="220" stroke="none" target-height="52.810013" target-width="52.809967" target-x="460.35" target-y="169.15"></path><path d="M 512.70 169.15 L 565.51 169.15 L 565.51 221.96 L 512.70 221.96 Z" fill="#472712" fill-rule="nonzero" node-id="222" stroke="none" target-height="52.810013" target-width="52.809998" target-x="512.7" target-y="169.15"></path><path d="M 460.35 533.48 L 513.16 533.48 L 513.16 586.29 L 460.35 586.29 Z" fill="#472712" fill-rule="nonzero" node-id="224" stroke="none" target-height="52.809998" target-width="52.809967" target-x="460.35" target-y="533.48"></path><path d="M 512.70 533.48 L 565.51 533.48 L 565.51 586.29 L 512.70 586.29 Z" fill="#472712" fill-rule="nonzero" node-id="226" stroke="none" target-height="52.809998" target-width="52.809998" target-x="512.7" target-y="533.48"></path><path d="M 483.63 586.29 L 536.44 586.29 L 536.44 639.10 L 483.63 639.10 Z" fill="#472712" fill-rule="nonzero" node-id="228" stroke="none" target-height="52.809998" target-width="52.809998" target-x="483.63" target-y="586.29"></path><path d="M 430.82 639.11 L 483.63 639.11 L 483.63 691.92 L 430.82 691.92 Z" fill="#472712" fill-rule="nonzero" node-id="230" stroke="none" target-height="52.809998" target-width="52.809998" target-x="430.82" target-y="639.11"></path><path d="M 536.45 639.11 L 589.26 639.11 L 589.26 691.92 L 536.45 691.92 Z" fill="#472712" fill-rule="nonzero" node-id="232" stroke="none" target-height="52.809998" target-width="52.809998" target-x="536.45" target-y="639.11"></path><path d="M 378.00 586.29 L 430.81 586.29 L 430.81 639.10 L 378.00 639.10 Z" fill="#472712" fill-rule="nonzero" node-id="234" stroke="none" target-height="52.809998" target-width="52.809998" target-x="378" target-y="586.29"></path><path d="M 589.26 586.29 L 642.07 586.29 L 642.07 639.10 L 589.26 639.10 Z" fill="#472712" fill-rule="nonzero" node-id="236" stroke="none" target-height="52.809998" target-width="52.809998" target-x="589.26" target-y="586.29"></path><path d="M 565.51 169.15 L 618.32 169.15 L 618.32 221.96 L 565.51 221.96 Z" fill="#472712" fill-rule="nonzero" node-id="238" stroke="none" target-height="52.810013" target-width="52.809998" target-x="565.51" target-y="169.15"></path><path d="M 618.33 221.96 L 671.14 221.96 L 671.14 274.77 L 618.33 274.77 Z" fill="#472712" fill-rule="nonzero" node-id="240" stroke="none" target-height="52.809982" target-width="52.809998" target-x="618.33" target-y="221.96"></path><path d="M 671.14 169.15 L 723.95 169.15 L 723.95 221.96 L 671.14 221.96 Z" fill="#472712" fill-rule="nonzero" node-id="242" stroke="none" target-height="52.810013" target-width="52.809998" target-x="671.14" target-y="169.15"></path></svg>